<?xml version="1.0" encoding="UTF-8" standalone="no"?>
<!DOCTYPE svg PUBLIC "-//W3C//DTD SVG 1.1//EN" "http://www.w3.org/Graphics/SVG/1.1/DTD/svg11.dtd">
<svg version="1.1" xmlns="http://www.w3.org/2000/svg" xmlns:xlink="http://www.w3.org/1999/xlink" preserveAspectRatio="xMidYMid meet" viewBox="0 0 640 640" width="640" height="640"><defs><path d="M240.83 111.23L360.13 111.23L360.13 203.41L240.83 203.41L240.83 111.23Z" id="a2wX7yBoRX"></path><path d="M316.2 134C316.2 142.38 309.16 149.19 300.48 149.19C291.8 149.19 284.75 142.38 284.75 134C284.75 125.62 291.8 118.82 300.48 118.82C309.16 118.82 316.2 125.62 316.2 134Z" id="e2zuFFcwwe"></path><path d="M316.2 181.59C316.2 189.97 309.16 196.78 300.48 196.78C291.8 196.78 284.75 189.97 284.75 181.59C284.75 173.21 291.8 166.41 300.48 166.41C309.16 166.41 316.2 173.21 316.2 181.59Z" id="blKHBU3QL"></path></defs><g><g><g><use xlink:href="#a2wX7yBoRX" opacity="1" fill="#000000" fill-opacity="1"></use></g><g><use xlink:href="#e2zuFFcwwe" opacity="1" fill="#e4e4e4" fill-opacity="1"></use></g><g><use xlink:href="#blKHBU3QL" opacity="1" fill="#e4e4e4" fill-opacity="1"></use></g></g></g></svg>